<mxfile host="app.diagrams.net" modified="2024-05-23T00:59:29.573Z" agent="Mozilla/5.0 (Windows NT 10.0; Win64; x64) AppleWebKit/537.36 (KHTML, like Gecko) Chrome/125.0.0.0 Safari/537.36" version="24.1.0" etag="8Ej9H_S5-ph0F_yZ4H2P" type="github">
  <diagram name="Page-1" id="v4VC-YrVS-erv4cLDq4j">
    <mxGraphModel>
      <root>
        <mxCell id="0" />
        <mxCell id="1" parent="0" />
      </root>
    </mxGraphModel>
  </diagram>
</mxfile>
